<svg xmlns="http://www.w3.org/2000/svg" width="1200" height="630" viewBox="0 0 1200 630" font-family="Inter,Segoe UI,Helvetica,sans-serif"><defs><linearGradient id="bg" x1="0" y1="0" x2="1" y2="1"><stop offset="0" stop-color="#16223d"/><stop offset="1" stop-color="#0b1426"/></linearGradient><linearGradient id="tile" x1="0" y1="0" x2="1" y2="1"><stop offset="0" stop-color="#2b4079"/><stop offset="1" stop-color="#0e1a35"/></linearGradient></defs><rect width="1200" height="630" fill="url(#bg)"/><path d="M980 120 Q980 300 1160 300 Q980 300 980 480 Q980 300 800 300 Q980 300 980 120 Z" fill="#fff" opacity="0.04"/><rect x="90" y="116" width="92" height="92" rx="22" fill="url(#tile)" stroke="#33457a"/><path d="M136 134 Q136 162 164 162 Q136 162 136 190 Q136 162 108 162 Q136 162 136 134 Z" fill="#fff"/><text x="206" y="156" fill="#fff" font-size="44" font-weight="800" font-family="Georgia,serif">Jarvis Stocks</text><text x="208" y="190" fill="#9fb0d0" font-size="20" font-weight="500">Live AI Portfolio · by Adamdegoat</text><text x="90" y="332" fill="#fff" font-size="54" font-weight="800">An AI that invests —</text><text x="90" y="398" fill="#fff" font-size="54" font-weight="800">and learns from every trade.</text><text x="90" y="452" fill="#9fb0d0" font-size="23">Self-improving · Transparent · Every trade explained · Paper portfolio</text><polyline fill="none" stroke="#34d399" stroke-width="4" stroke-linecap="round" stroke-linejoin="round" points="90,560 260,540 430,548 600,510 770,520 940,470 1110,486"/><circle cx="1110" cy="486" r="7" fill="#34d399"/></svg>